<mxfile host="app.diagrams.net" modified="2024-04-20T14:00:28.087Z" agent="Mozilla/5.0 (Windows NT 10.0; Win64; x64) AppleWebKit/537.36 (KHTML, like Gecko) Chrome/123.0.0.0 Safari/537.36 Edg/123.0.0.0" etag="zHXcTnJzEJ9c2d4DmTAf" version="24.2.5" type="github">
  <diagram name="第 1 页" id="R0a_DGcPqlOUdR0yVT3M">
    <mxGraphModel dx="865" dy="1659" grid="1" gridSize="10" guides="1" tooltips="1" connect="1" arrows="1" fold="1" page="1" pageScale="1" pageWidth="827" pageHeight="1169" math="0" shadow="0">
      <root>
        <mxCell id="0" />
        <mxCell id="1" parent="0" />
        <mxCell id="k40D2sdrNu16etbzWPAA-2" value="Rasterization Stage" style="swimlane;horizontal=0;whiteSpace=wrap;html=1;" parent="1" vertex="1">
          <mxGeometry x="300" y="180" width="350" height="210" as="geometry" />
        </mxCell>
        <mxCell id="PYF7y9KTU3-PXiWqatS_-1" value="Geometry Stage" style="swimlane;horizontal=0;whiteSpace=wrap;html=1;" vertex="1" parent="1">
          <mxGeometry x="300" y="-40" width="350" height="220" as="geometry" />
        </mxCell>
      </root>
    </mxGraphModel>
  </diagram>
</mxfile>
